<svg width="120" height="120" viewBox="0 0 120 120" fill="none" xmlns="http://www.w3.org/2000/svg">
<g clip-path="url(#clip0_5_621)">
<g filter="url(#filter0_b_5_621)">
<path d="M16.3635 103.04L29.696 19.0908H62.5752C70.409 19.0908 76.4726 20.3337 80.7661 22.8194C85.0596 25.3051 88.035 28.77 89.6921 33.2142C91.3492 37.583 92.1778 42.6674 92.1778 48.4674C92.1778 50.8778 92.0648 53.4012 91.8389 56.0376C91.6882 58.6739 91.3869 61.3856 90.935 64.1726C89.8051 71.4791 88.0726 77.6181 85.7375 82.5895C83.4778 87.561 80.5778 91.5532 77.0375 94.5661C73.5726 97.5791 69.4674 99.7635 64.722 101.119C59.9765 102.4 54.5908 103.04 48.5648 103.04H16.3635ZM41.4466 83.3804H50.9376C53.4986 83.3804 55.7583 82.9661 57.7168 82.1376C59.7505 81.2337 61.483 79.8778 62.9142 78.07C64.3453 76.2623 65.5505 73.9272 66.5298 71.0648C67.509 68.2025 68.3376 64.7376 69.0155 60.67C69.3921 58.0337 69.6934 55.7739 69.9194 53.8908C70.1453 51.9324 70.2583 50.4635 70.2583 49.4843C70.2583 46.6973 69.8064 44.5506 68.9025 43.0441C67.9986 41.4622 66.5674 40.37 64.609 39.7674C62.7259 39.0895 60.2402 38.7506 57.1518 38.7506H48.4518L41.4466 83.3804Z" fill="#406AFF"/>
<path d="M15.6901 102.933L15.5649 103.722H16.3635H48.5648C54.6378 103.722 60.0849 103.077 64.8996 101.778L64.8996 101.778L64.9093 101.775C69.7421 100.394 73.9369 98.1651 77.4821 95.0831C81.1087 91.9959 84.0633 87.9194 86.3565 82.8756C88.7257 77.8301 90.4721 71.6262 91.6085 64.2789C92.0631 61.4746 92.3668 58.7436 92.519 56.0861C92.7459 53.4357 92.8596 50.8961 92.8596 48.4674C92.8596 42.6048 92.0224 37.436 90.3303 32.9742C88.6151 28.3755 85.5307 24.79 81.1077 22.2293C76.6669 19.6583 70.4659 18.409 62.5752 18.409H29.696H29.1139L29.0226 18.9839L15.6901 102.933ZM68.3105 43.3823L68.3141 43.3886L68.3178 43.3949C69.1312 44.7504 69.5765 46.7551 69.5765 49.4843C69.5765 50.4227 69.4674 51.8593 69.2421 53.8119C69.0172 55.686 68.7171 57.937 68.3416 60.5657C67.6681 64.6052 66.8477 68.0291 65.8846 70.8442C64.9231 73.6548 63.7503 75.9154 62.3796 77.6468C61.0157 79.3697 59.3723 80.6546 57.4455 81.512C55.5877 82.297 53.423 82.6986 50.9376 82.6986H42.2438L49.035 39.4324H57.1518C60.1995 39.4324 62.5979 39.7681 64.378 40.409L64.3931 40.4144L64.4085 40.4191C66.2237 40.9776 67.5035 41.97 68.3105 43.3823Z" stroke="white" stroke-opacity="0.5" stroke-width="1.36364"/>
</g>
<g filter="url(#filter1_b_5_621)">
<rect y="46.3635" width="109.091" height="27.2727" rx="13.6364" fill="#406AFF" fill-opacity="0.26"/>
<rect x="-0.681818" y="45.6817" width="110.455" height="28.6364" rx="14.3182" stroke="white" stroke-opacity="0.5" stroke-width="1.36364"/>
</g>
<circle opacity="0.3" cx="34.0909" cy="25.909" r="6.81818" fill="#2E5CFF"/>
<circle cx="8.18186" cy="60" r="2.72727" fill="#406AFF"/>
<circle cx="100.909" cy="60" r="2.72727" fill="#406AFF"/>
</g>
<defs>
<filter id="filter0_b_5_621" x="3.85702" y="6.8182" width="100.594" height="108.495" filterUnits="userSpaceOnUse" color-interpolation-filters="sRGB">
<feFlood flood-opacity="0" result="BackgroundImageFix"/>
<feGaussianBlur in="BackgroundImageFix" stdDeviation="5.45455"/>
<feComposite in2="SourceAlpha" operator="in" result="effect1_backgroundBlur_5_621"/>
<feBlend mode="normal" in="SourceGraphic" in2="effect1_backgroundBlur_5_621" result="shape"/>
</filter>
<filter id="filter1_b_5_621" x="-12.2726" y="34.0909" width="133.636" height="51.8182" filterUnits="userSpaceOnUse" color-interpolation-filters="sRGB">
<feFlood flood-opacity="0" result="BackgroundImageFix"/>
<feGaussianBlur in="BackgroundImageFix" stdDeviation="5.45455"/>
<feComposite in2="SourceAlpha" operator="in" result="effect1_backgroundBlur_5_621"/>
<feBlend mode="normal" in="SourceGraphic" in2="effect1_backgroundBlur_5_621" result="shape"/>
</filter>
<clipPath id="clip0_5_621">
<rect width="120" height="120" fill="white"/>
</clipPath>
</defs>
</svg>
