<svg width="120" height="120" viewBox="0 0 120 120" fill="none" xmlns="http://www.w3.org/2000/svg">
<circle cx="17.7272" cy="88.6365" r="12.2727" fill="#C99FFF"/>
<circle cx="40.909" cy="40.909" r="21.8182" fill="#8435E9"/>
<circle cx="40.909" cy="40.909" r="21.1364" stroke="white" stroke-opacity="0.2" stroke-width="1.36364"/>
<path d="M39.8455 30.5272L39.6546 28.8363L41.3727 27.8L41.5909 29.4909L39.8455 30.5272ZM39.6546 52.7V50.0545H41.5909V52.7H39.6546ZM40.5546 50.4363C40.0637 50.4363 39.5364 50.4182 38.9728 50.3818C38.4273 50.3636 37.8637 50.3273 37.2818 50.2727C36.7182 50.2 36.1818 50.1363 35.6727 50.0818C35.1637 50.0091 34.7091 49.9273 34.3091 49.8363V47.1909C34.8182 47.2273 35.4091 47.2636 36.0818 47.3C36.7727 47.3363 37.4909 47.3636 38.2364 47.3818C38.9818 47.4 39.7 47.4091 40.3909 47.4091C41.1182 47.4091 41.7637 47.3454 42.3273 47.2182C42.8909 47.0727 43.3273 46.8273 43.6364 46.4818C43.9455 46.1363 44.1 45.6454 44.1 45.0091V44.0545C44.1 43.3454 43.9 42.8 43.5 42.4182C43.1 42.0363 42.5091 41.8454 41.7273 41.8454H39.8455C38.0091 41.8454 36.5909 41.4454 35.5909 40.6454C34.6091 39.8454 34.1182 38.4727 34.1182 36.5272V35.4909C34.1182 33.5454 34.6546 32.1454 35.7273 31.2909C36.8182 30.4182 38.3727 29.9818 40.3909 29.9818C41.0818 29.9818 41.7909 30.0182 42.5182 30.0909C43.2637 30.1454 43.9727 30.2182 44.6455 30.3091C45.3182 30.4 45.8909 30.5 46.3637 30.6091V33.2545C45.5637 33.2 44.6455 33.1454 43.6091 33.0909C42.5909 33.0363 41.6455 33.0091 40.7728 33.0091C40.0818 33.0091 39.4727 33.0818 38.9455 33.2273C38.4182 33.3727 38.0182 33.6363 37.7455 34.0182C37.4727 34.3818 37.3364 34.9272 37.3364 35.6545V36.3091C37.3364 37.1636 37.5637 37.7636 38.0182 38.1091C38.4909 38.4545 39.1637 38.6272 40.0364 38.6272H42.1364C43.3182 38.6272 44.2909 38.8454 45.0546 39.2818C45.8182 39.7182 46.3818 40.3182 46.7455 41.0818C47.1273 41.8273 47.3182 42.6818 47.3182 43.6454V44.9273C47.3182 46.4182 47.0273 47.5636 46.4455 48.3636C45.8637 49.1636 45.0637 49.7091 44.0455 50C43.0273 50.2909 41.8637 50.4363 40.5546 50.4363Z" fill="white"/>
<g filter="url(#filter0_b_5_635)">
<rect y="40.9092" width="81.8182" height="60" rx="10.9091" fill="#8435E9" fill-opacity="0.2"/>
<rect x="0.681818" y="41.591" width="80.4545" height="58.6364" rx="10.2273" stroke="white" stroke-opacity="0.2" stroke-width="1.36364"/>
</g>
<path d="M43.6364 70.9089C43.6364 66.3902 47.2995 62.7271 51.8182 62.7271H81.8182V79.0907H51.8182C47.2995 79.0907 43.6364 75.4276 43.6364 70.9089Z" fill="#8435E9"/>
<circle cx="51.8182" cy="70.9089" r="2.72727" fill="white"/>
<defs>
<filter id="filter0_b_5_635" x="-8.18182" y="32.7274" width="98.1818" height="76.3636" filterUnits="userSpaceOnUse" color-interpolation-filters="sRGB">
<feFlood flood-opacity="0" result="BackgroundImageFix"/>
<feGaussianBlur in="BackgroundImageFix" stdDeviation="4.09091"/>
<feComposite in2="SourceAlpha" operator="in" result="effect1_backgroundBlur_5_635"/>
<feBlend mode="normal" in="SourceGraphic" in2="effect1_backgroundBlur_5_635" result="shape"/>
</filter>
</defs>
</svg>
