<svg width="123" height="129" viewBox="0 0 123 129" fill="none" xmlns="http://www.w3.org/2000/svg">
<g filter="url(#filter0_b_6_1095)">
<path d="M12.4464 49.0563V116.645H103.388L103.428 116.642C107.412 116.356 110.554 113.058 110.554 109.031V98.4761C110.554 94.2616 107.112 90.8451 102.866 90.8451H95.5446C92.1077 90.8451 89.3214 88.0793 89.3214 84.6676C89.3214 81.2559 92.1077 78.4901 95.5446 78.4901H109.455C116.548 78.4901 122.368 83.9019 122.952 90.7916L122.953 90.8106L122.956 90.8296C122.985 91.0725 123 91.3202 123 91.5718V129H0V49.0563C0 21.9633 22.1259 0 49.4196 0H80.1696C83.6066 0 86.3929 2.76574 86.3929 6.17746C86.3929 9.58919 83.6066 12.3549 80.1696 12.3549H49.4196C28.9999 12.3549 12.4464 28.7867 12.4464 49.0563Z" fill="white" fill-opacity="0.8"/>
<path d="M74.6786 36.7014C74.6786 33.2897 77.4648 30.5239 80.9018 30.5239C84.3388 30.5239 87.125 33.2897 87.125 36.7014V57.0507C87.125 60.4624 84.3388 63.2282 80.9018 63.2282C77.4648 63.2282 74.6786 60.4624 74.6786 57.0507V36.7014Z" fill="white" fill-opacity="0.8"/>
<path d="M101.036 36.7014C101.036 33.2897 103.822 30.5239 107.259 30.5239C110.696 30.5239 113.482 33.2897 113.482 36.7014V57.0507C113.482 60.4624 110.696 63.2282 107.259 63.2282C103.822 63.2282 101.036 60.4624 101.036 57.0507V36.7014Z" fill="white" fill-opacity="0.8"/>
</g>
<defs>
<filter id="filter0_b_6_1095" x="-80" y="-80" width="283" height="289" filterUnits="userSpaceOnUse" color-interpolation-filters="sRGB">
<feFlood flood-opacity="0" result="BackgroundImageFix"/>
<feGaussianBlur in="BackgroundImageFix" stdDeviation="40"/>
<feComposite in2="SourceAlpha" operator="in" result="effect1_backgroundBlur_6_1095"/>
<feBlend mode="normal" in="SourceGraphic" in2="effect1_backgroundBlur_6_1095" result="shape"/>
</filter>
</defs>
</svg>
