<svg width="100" height="101" viewBox="0 0 100 101" fill="none" xmlns="http://www.w3.org/2000/svg">
<rect y="0.5" width="100" height="100" rx="18.75" fill="#4472F5"/>
<path d="M24.4513 42.4564V77.6589H71.8167L71.8373 77.6574C73.9123 77.5084 75.5487 75.7909 75.5487 73.6934V68.1959C75.5487 66.0008 73.7561 64.2214 71.5448 64.2214H67.7316C65.9415 64.2214 64.4903 62.7809 64.4903 61.004C64.4903 59.227 65.9415 57.7865 67.7316 57.7865H74.9767C78.6707 57.7865 81.702 60.6052 82.0061 64.1936L82.007 64.2035L82.0082 64.2133C82.0234 64.3399 82.0312 64.4689 82.0312 64.5999V84.0938H17.9688V42.4564C17.9688 28.3454 29.4927 16.9062 43.7081 16.9062H59.7238C61.5139 16.9062 62.965 18.3467 62.965 20.1237C62.965 21.9006 61.5139 23.3411 59.7238 23.3411H43.7081C33.0729 23.3411 24.4513 31.8993 24.4513 42.4564Z" fill="white"/>
<path d="M56.8638 36.0216C56.8638 34.2446 58.315 32.8041 60.1051 32.8041C61.8952 32.8041 63.3464 34.2446 63.3464 36.0216V46.6202C63.3464 48.3971 61.8952 49.8376 60.1051 49.8376C58.315 49.8376 56.8638 48.3971 56.8638 46.6202V36.0216Z" fill="white"/>
<path d="M70.5915 36.0216C70.5915 34.2446 72.0427 32.8041 73.8328 32.8041C75.6229 32.8041 77.074 34.2446 77.074 36.0216V46.6202C77.074 48.3971 75.6229 49.8376 73.8328 49.8376C72.0427 49.8376 70.5915 48.3971 70.5915 46.6202V36.0216Z" fill="white"/>
</svg>
