<svg width="138" height="32" viewBox="0 0 138 32" fill="none" xmlns="http://www.w3.org/2000/svg">
<path fill-rule="evenodd" clip-rule="evenodd" d="M2.68268 10.6404V25.3005H22.284L22.2926 25.2999C23.1513 25.2378 23.8285 24.5226 23.8285 23.6491V21.3596C23.8285 20.4455 23.0866 19.7044 22.1715 19.7044H20.5935C19.8527 19.7044 19.2521 19.1045 19.2521 18.3645C19.2521 17.6245 19.8527 17.0246 20.5935 17.0246H23.5918C25.1204 17.0246 26.3749 18.1984 26.5007 19.6928L26.5011 19.697L26.5016 19.7011C26.5079 19.7538 26.5111 19.8075 26.5111 19.8621V27.9803H0V10.6404C0 4.76386 4.76897 0 10.6518 0H17.2796C18.0204 0 18.6209 0.599893 18.6209 1.3399C18.6209 2.07991 18.0204 2.6798 17.2796 2.6798H10.6518C6.25057 2.6798 2.68268 6.24388 2.68268 10.6404ZM16.0961 7.96059C16.0961 7.22058 16.6966 6.62069 17.4374 6.62069C18.1782 6.62069 18.7787 7.22058 18.7787 7.96059V12.3744C18.7787 13.1144 18.1782 13.7143 17.4374 13.7143C16.6966 13.7143 16.0961 13.1144 16.0961 12.3744V7.96059ZM21.777 7.96059C21.777 7.22058 22.3776 6.62069 23.1184 6.62069C23.8591 6.62069 24.4597 7.22058 24.4597 7.96059V12.3744C24.4597 13.1144 23.8591 13.7143 23.1184 13.7143C22.3776 13.7143 21.777 13.1144 21.777 12.3744V7.96059ZM41.7393 25.443C40.4479 25.4614 39.3833 25.3877 38.5347 24.945C37.7045 24.5023 37.0496 23.8476 36.5699 22.9807C36.0902 22.1138 35.749 21.0348 35.546 19.7437C35.3615 18.4341 35.2693 16.9217 35.2693 15.2064C35.2693 13.5095 35.3708 12.0155 35.5737 10.7244C35.7951 9.43325 36.164 8.35425 36.6806 7.48736C37.1972 6.62047 37.9166 5.97492 38.8391 5.5507C39.7799 5.10803 40.9514 4.8867 42.3535 4.8867C43.1467 4.8867 43.9308 4.91437 44.7056 4.9697C45.4805 5.02503 46.2276 5.11725 46.9471 5.24637C47.685 5.35703 48.3768 5.48615 49.0225 5.6337V7.76403C48.6536 7.7087 48.137 7.65336 47.4729 7.59803C46.8087 7.54269 46.0708 7.49658 45.2591 7.4597C44.4658 7.40436 43.6541 7.37669 42.8239 7.37669C41.5325 7.37669 40.5455 7.63492 39.8629 8.15136C39.1803 8.64936 38.7007 9.47936 38.424 10.6414C38.1657 11.7849 38.0365 13.3158 38.0365 15.234C38.0365 16.7649 38.1103 18.0376 38.2579 19.052C38.4055 20.048 38.6453 20.8411 38.9774 21.4313C39.3095 22.0031 39.7615 22.4181 40.3334 22.6763C40.9237 22.9161 41.6616 23.036 42.5472 23.036C43.3958 23.036 47.2238 22.9807 47.2238 22.9807V16.728H42.6855V14.5977C43.0545 14.5424 43.488 14.4962 43.9861 14.4594C44.5027 14.4225 45.0377 14.3948 45.5911 14.3764C46.163 14.3395 46.7349 14.321 47.3068 14.321C47.8234 14.321 48.2938 14.3302 48.7181 14.3487C49.1609 14.3671 49.5575 14.3948 49.9081 14.4317V25.443C46.9468 25.4707 44.3431 25.4707 41.7393 25.443ZM59.9041 25.609C58.7788 25.609 57.801 25.4891 56.9708 25.2493C56.1591 25.0096 55.4857 24.613 54.9507 24.0597C54.4157 23.4879 54.0191 22.7132 53.7608 21.7357C53.5025 20.7581 53.3734 19.5223 53.3734 18.0284C53.3734 16.479 53.5025 15.2156 53.7608 14.238C54.0191 13.242 54.4157 12.4674 54.9507 11.914C55.4857 11.3607 56.1683 10.9826 56.9985 10.7797C57.8287 10.5584 58.7972 10.4477 59.9041 10.4477C61.011 10.4477 61.9795 10.5584 62.8097 10.7797C63.6399 11.001 64.3225 11.3884 64.8575 11.9417C65.3925 12.495 65.7891 13.2697 66.0474 14.2657C66.3057 15.2432 66.4348 16.4975 66.4348 18.0284C66.4348 19.5408 66.3057 20.795 66.0474 21.791C65.7891 22.7686 65.3925 23.534 64.8575 24.0873C64.3409 24.6407 63.6675 25.0372 62.8374 25.277C62.0072 25.4983 61.0294 25.609 59.9041 25.609ZM59.9041 23.3403C60.5129 23.3403 61.0479 23.285 61.5091 23.1743C61.9888 23.0637 62.3854 22.8331 62.699 22.4827C63.0126 22.1138 63.2525 21.5697 63.4185 20.8503C63.5845 20.131 63.6675 19.1811 63.6675 18.0007C63.6675 16.8202 63.5845 15.8796 63.4185 15.1787C63.2525 14.4594 63.0126 13.9245 62.699 13.574C62.3854 13.2236 61.9888 12.993 61.5091 12.8824C61.0479 12.7532 60.5129 12.6887 59.9041 12.6887C59.2769 12.6887 58.7234 12.7532 58.2437 12.8824C57.7825 12.993 57.3951 13.2236 57.0815 13.574C56.7863 13.9245 56.5557 14.4594 56.3897 15.1787C56.2421 15.8796 56.1683 16.8202 56.1683 18.0007C56.1683 19.1811 56.2421 20.131 56.3897 20.8503C56.5557 21.5697 56.7863 22.1138 57.0815 22.4827C57.3951 22.8331 57.7825 23.0637 58.2437 23.1743C58.7234 23.285 59.2769 23.3403 59.9041 23.3403ZM73.6067 25.5813C74.1417 25.5998 74.6029 25.609 74.9904 25.609C76.1157 25.609 77.0843 25.4983 77.896 25.277C78.7262 25.0557 79.3718 24.6683 79.8331 24.115C80.2943 23.5617 80.5249 22.787 80.5249 21.791V20.6567C80.5249 19.4762 80.1651 18.5632 79.4456 17.9177C78.7262 17.2537 77.6654 16.9217 76.2633 16.9217H74.0495C73.533 16.9217 73.081 16.8848 72.6936 16.811C72.3246 16.7372 72.0386 16.5712 71.8357 16.313C71.6328 16.0548 71.5313 15.6859 71.5313 15.2064V14.653C71.5313 13.8784 71.7435 13.3527 72.1678 13.076C72.6105 12.7994 73.2378 12.661 74.0495 12.661H79.9161V10.586C79.9161 10.586 75.1011 10.503 74.5476 10.503C73.2378 10.503 72.1862 10.6598 71.3929 10.9734C70.5997 11.2685 70.0185 11.7204 69.6496 12.329C69.2991 12.9377 69.1238 13.7124 69.1238 14.653V15.4554C69.1238 16.396 69.3083 17.143 69.6773 17.6964C70.0647 18.2497 70.5904 18.6462 71.2546 18.886C71.9372 19.1073 72.712 19.218 73.5791 19.218H75.7375C76.5862 19.218 77.195 19.3748 77.5639 19.6883C77.9329 20.0019 78.1174 20.4353 78.1174 20.9887V21.5973C78.1174 22.1322 78.0067 22.538 77.7853 22.8147C77.5823 23.0913 77.2872 23.2758 76.8998 23.368C76.5124 23.4418 76.0512 23.4787 75.5161 23.4787H69.2898V25.1387C69.5666 25.2125 69.9355 25.277 70.3967 25.3323C70.8764 25.3877 71.3929 25.4338 71.9464 25.4707C72.5183 25.526 73.0717 25.5629 73.6067 25.5813ZM94.0291 32V10.6414H96.7963V12.1354C97.1468 11.8771 97.5619 11.6189 98.0416 11.3607C98.5397 11.1025 99.0747 10.8904 99.6466 10.7244C100.237 10.5399 100.827 10.4477 101.418 10.4477C102.358 10.4477 103.161 10.6414 103.825 11.0287C104.508 11.416 105.061 11.9601 105.485 12.661C105.91 13.3435 106.214 14.1458 106.399 15.068C106.602 15.9902 106.703 16.977 106.703 18.0284C106.703 19.6699 106.519 21.0625 106.15 22.206C105.799 23.3311 105.236 24.1888 104.462 24.779C103.705 25.3508 102.691 25.6367 101.418 25.6367C100.643 25.6367 99.8495 25.526 99.0378 25.3047C98.2261 25.0649 97.4789 24.7513 96.7963 24.364V32H94.0291ZM100.587 23.3127C101.215 23.3127 101.777 23.1559 102.275 22.8423C102.774 22.5288 103.17 21.9939 103.465 21.2377C103.779 20.463 103.936 19.3932 103.936 18.0284C103.936 16.7372 103.779 15.7044 103.465 14.9297C103.152 14.1366 102.746 13.574 102.248 13.242C101.75 12.8916 101.205 12.7164 100.615 12.7164C99.8403 12.7164 99.13 12.8362 98.4843 13.076C97.8571 13.3158 97.2944 13.5648 96.7963 13.823V22.2613C97.3682 22.5749 97.977 22.8331 98.6227 23.036C99.2868 23.2205 99.9417 23.3127 100.587 23.3127ZM110.33 24.6407C111.05 25.2862 111.954 25.609 113.042 25.609C113.688 25.609 114.324 25.5352 114.952 25.3877C115.597 25.2401 116.188 25.0557 116.723 24.8343C117.276 24.613 117.728 24.4101 118.079 24.2257C118.429 24.0228 118.66 23.8845 118.77 23.8107L119.241 25.443H121.427V15.1234C121.427 13.9798 121.224 13.0668 120.818 12.3844C120.412 11.6835 119.794 11.1855 118.964 10.8904C118.152 10.5768 117.138 10.42 115.92 10.42C114.721 10.4385 113.669 10.503 112.766 10.6137C111.88 10.7244 111.105 10.8535 110.441 11.001V12.6334H114.979C115.994 12.6334 116.76 12.7348 117.276 12.9377C117.793 13.1406 118.143 13.4449 118.328 13.8507C118.531 14.238 118.632 14.7176 118.632 15.2894V16.8387H114.011C112.424 16.8387 111.234 17.2076 110.441 17.9454C109.666 18.6647 109.279 19.5961 109.279 20.7397V21.9017C109.279 23.0637 109.629 23.9767 110.33 24.6407ZM115.284 23.5063C114.915 23.5801 114.592 23.6078 114.315 23.5893C113.946 23.5893 113.586 23.5248 113.236 23.3957C112.904 23.2666 112.627 23.0452 112.406 22.7317C112.184 22.3997 112.074 21.9662 112.074 21.4313V20.7673C112.074 20.0849 112.277 19.5316 112.682 19.1074C113.107 18.6831 113.799 18.4433 114.758 18.388L118.632 18.222V22.4827C118.614 22.5011 118.494 22.5565 118.272 22.6487C118.069 22.7225 117.802 22.8147 117.47 22.9253C117.156 23.036 116.806 23.1467 116.418 23.2573C116.049 23.3496 115.671 23.4326 115.284 23.5063ZM129.366 32L131.165 25.443C130.575 25.4246 130.012 25.3047 129.477 25.0833C128.942 24.8436 128.462 24.4655 128.038 23.949C127.632 23.4141 127.3 22.704 127.042 21.8187L123.721 10.6414H126.627L129.615 21.2377C129.781 21.7357 129.966 22.1138 130.169 22.372C130.39 22.6302 130.602 22.8147 130.805 22.9253C131.027 23.0176 131.22 23.0729 131.386 23.0913C131.552 23.1098 131.654 23.119 131.691 23.119L135.15 10.6414H138L132.082 32H129.366ZM85.6089 6.62069H88.1338V10.5616H91.4477V12.7685H88.1338V25.5369H85.6089V12.7685H82.295V10.5616H85.6089V6.62069Z" fill="currentColor"/>
</svg>
