<svg width="431" height="426" viewBox="0 0 431 426" fill="none" xmlns="http://www.w3.org/2000/svg">
<g opacity="0.1">
<path d="M107.055 217.462V436.454H400.634L400.761 436.444C413.623 435.517 423.766 424.833 423.766 411.785V377.585C423.766 363.93 412.655 352.86 398.949 352.86H375.314C364.218 352.86 355.224 343.899 355.224 332.844C355.224 321.79 364.218 312.829 375.314 312.829H420.22C443.116 312.829 461.905 330.363 463.79 352.687L463.795 352.748L463.802 352.81C463.897 353.597 463.945 354.399 463.945 355.215V476.484H66.875V217.462C66.875 129.678 138.302 58.5156 226.412 58.5156H325.68C336.775 58.5156 345.77 67.4768 345.77 78.531C345.77 89.5852 336.775 98.5464 325.68 98.5464H226.412C160.493 98.5464 107.055 151.787 107.055 217.462Z" fill="white"/>
<path d="M307.953 177.431C307.953 166.376 316.948 157.415 328.043 157.415C339.139 157.415 348.133 166.376 348.133 177.431V243.364C348.133 254.418 339.139 263.379 328.043 263.379C316.948 263.379 307.953 254.418 307.953 243.364V177.431Z" fill="white"/>
<path d="M393.04 177.431C393.04 166.376 402.035 157.415 413.13 157.415C424.225 157.415 433.22 166.376 433.22 177.431V243.364C433.22 254.418 424.225 263.379 413.13 263.379C402.035 263.379 393.04 254.418 393.04 243.364V177.431Z" fill="white"/>
</g>
</svg>
