<svg width="88" height="88" viewBox="0 0 88 88" fill="none" xmlns="http://www.w3.org/2000/svg">
<circle cx="44" cy="44" r="44" fill="white"/>
<path d="M65.1666 30.4999C63.411 31.7383 61.4671 32.6854 59.4099 33.3049C58.3058 32.0353 56.8384 31.1355 55.2061 30.7271C53.5739 30.3187 51.8557 30.4214 50.2837 31.0214C48.7118 31.6214 47.3621 32.6896 46.4171 34.0817C45.472 35.4738 44.9774 37.1225 44.9999 38.8049V40.6382C41.7781 40.7218 38.5856 40.0072 35.7068 38.5582C32.8279 37.1092 30.3522 34.9707 28.4999 32.3332C28.4999 32 21.1666 48.8332 37.6666 56.1665C33.8909 58.7295 29.393 60.0146 24.8333 59.8332C41.3333 68.9999 61.4999 59.8332 61.4999 38.7499C61.4982 38.2392 61.4491 37.7298 61.3533 37.2282C63.2244 35.383 64.5448 33.0532 65.1666 30.4999Z" stroke="#1D9BF0" stroke-width="3.66667" stroke-linecap="round" stroke-linejoin="round"/>
</svg>
