<svg width="372" height="240" viewBox="0 0 372 240" fill="none" xmlns="http://www.w3.org/2000/svg">
<g opacity="0.1" clip-path="url(#clip0_64_571)">
<path d="M381.416 49.7488C365.535 60.9505 347.952 69.5179 329.344 75.1213C319.357 63.6375 306.083 55.4981 291.319 51.8039C276.555 48.1097 261.012 49.0389 246.794 54.466C232.575 59.893 220.366 69.5559 211.818 82.1479C203.27 94.7399 198.795 109.653 198.999 124.871V141.455C169.856 142.21 140.979 135.747 114.938 122.64C88.8982 109.533 66.5036 90.1895 49.7492 66.3321C49.7492 63.318 -16.5841 215.582 132.666 281.915C98.5129 305.098 57.8279 316.723 16.5825 315.082C165.833 397.999 348.249 315.082 348.249 124.374C348.234 119.755 347.79 115.147 346.923 110.61C363.848 93.9184 375.791 72.8446 381.416 49.7488Z" stroke="white" stroke-width="33.1667" stroke-linecap="round" stroke-linejoin="round"/>
</g>
<defs>
<clipPath id="clip0_64_571">
<rect width="398" height="398" fill="white"/>
</clipPath>
</defs>
</svg>
