<svg width="120" height="120" viewBox="0 0 120 120" fill="none" xmlns="http://www.w3.org/2000/svg">
<rect x="16.3635" y="27.2727" width="76.3636" height="76.3636" rx="10.9091" fill="#FBC028"/>
<rect x="17.0453" y="27.9545" width="75" height="75" rx="10.2273" stroke="white" stroke-opacity="0.5" stroke-width="1.36364"/>
<g filter="url(#filter0_b_5_440)">
<rect y="13.6365" width="76.3636" height="76.3636" rx="10.9091" fill="#FBC028" fill-opacity="0.3"/>
<rect x="0.681818" y="14.3183" width="75" height="75" rx="10.2273" stroke="white" stroke-opacity="0.5" stroke-width="1.36364"/>
</g>
<path opacity="0.6" d="M8.94523 63.9092V46.8092H3.16341V43.7819H18.0816V46.8092H12.3271V63.9092H8.94523ZM27.8512 64.0728C26.5057 64.0728 25.3239 63.9455 24.3057 63.691C23.3057 63.4183 22.4603 62.9365 21.7694 62.2455C21.0967 61.5365 20.5876 60.5092 20.2421 59.1637C19.9148 57.8183 19.7512 56.0637 19.7512 53.9001C19.7512 51.7183 19.9239 49.9546 20.2694 48.6092C20.6148 47.2455 21.1239 46.2092 21.7967 45.5001C22.4876 44.7728 23.333 44.2728 24.333 44.0001C25.3512 43.7274 26.5239 43.591 27.8512 43.591C29.2148 43.591 30.4057 43.7274 31.4239 44.0001C32.4421 44.2728 33.2876 44.7728 33.9603 45.5001C34.633 46.2092 35.133 47.2455 35.4603 48.6092C35.8057 49.9546 35.9785 51.7183 35.9785 53.9001C35.9785 56.0637 35.8057 57.8183 35.4603 59.1637C35.133 60.5092 34.6239 61.5365 33.933 62.2455C33.2603 62.9365 32.4148 63.4183 31.3967 63.691C30.3967 63.9455 29.2148 64.0728 27.8512 64.0728ZM27.8512 61.0455C28.7421 61.0455 29.4876 60.9546 30.0876 60.7728C30.7057 60.5728 31.1967 60.2274 31.5603 59.7365C31.9239 59.2274 32.1876 58.5092 32.3512 57.5819C32.5148 56.6365 32.5967 55.4092 32.5967 53.9001C32.5967 52.3001 32.5057 51.0274 32.3239 50.0819C32.1603 49.1183 31.8967 48.391 31.533 47.9001C31.1694 47.391 30.6876 47.0546 30.0876 46.891C29.4876 46.7092 28.7421 46.6183 27.8512 46.6183C27.0148 46.6183 26.2967 46.7092 25.6967 46.891C25.0967 47.0546 24.6057 47.391 24.2239 47.9001C23.8603 48.391 23.5876 49.1183 23.4057 50.0819C23.2239 51.0274 23.133 52.3001 23.133 53.9001C23.133 55.4092 23.2057 56.6365 23.3512 57.5819C23.5148 58.5092 23.7785 59.2274 24.1421 59.7365C24.5057 60.2274 24.9876 60.5728 25.5876 60.7728C26.2057 60.9546 26.9603 61.0455 27.8512 61.0455ZM46.8143 64.0728C45.4688 64.0728 44.287 63.9455 43.2688 63.691C42.2688 63.4183 41.4234 62.9365 40.7325 62.2455C40.0597 61.5365 39.5506 60.5092 39.2052 59.1637C38.8779 57.8183 38.7143 56.0637 38.7143 53.9001C38.7143 51.7183 38.887 49.9546 39.2325 48.6092C39.5779 47.2455 40.087 46.2092 40.7597 45.5001C41.4506 44.7728 42.2961 44.2728 43.2961 44.0001C44.3143 43.7274 45.487 43.591 46.8143 43.591C48.1779 43.591 49.3688 43.7274 50.387 44.0001C51.4052 44.2728 52.2506 44.7728 52.9234 45.5001C53.5961 46.2092 54.0961 47.2455 54.4234 48.6092C54.7688 49.9546 54.9415 51.7183 54.9415 53.9001C54.9415 56.0637 54.7688 57.8183 54.4234 59.1637C54.0961 60.5092 53.587 61.5365 52.8961 62.2455C52.2234 62.9365 51.3779 63.4183 50.3597 63.691C49.3597 63.9455 48.1779 64.0728 46.8143 64.0728ZM46.8143 61.0455C47.7052 61.0455 48.4506 60.9546 49.0506 60.7728C49.6688 60.5728 50.1597 60.2274 50.5234 59.7365C50.887 59.2274 51.1506 58.5092 51.3143 57.5819C51.4779 56.6365 51.5597 55.4092 51.5597 53.9001C51.5597 52.3001 51.4688 51.0274 51.287 50.0819C51.1234 49.1183 50.8597 48.391 50.4961 47.9001C50.1325 47.391 49.6506 47.0546 49.0506 46.891C48.4506 46.7092 47.7052 46.6183 46.8143 46.6183C45.9779 46.6183 45.2597 46.7092 44.6597 46.891C44.0597 47.0546 43.5688 47.391 43.187 47.9001C42.8234 48.391 42.5506 49.1183 42.3688 50.0819C42.187 51.0274 42.0961 52.3001 42.0961 53.9001C42.0961 55.4092 42.1688 56.6365 42.3143 57.5819C42.4779 58.5092 42.7415 59.2274 43.1052 59.7365C43.4688 60.2274 43.9506 60.5728 44.5506 60.7728C45.1688 60.9546 45.9234 61.0455 46.8143 61.0455ZM62.6955 63.9092C61.7501 63.9092 60.9319 63.7637 60.241 63.4728C59.5682 63.1819 59.0592 62.7092 58.7137 62.0546C58.3682 61.3819 58.1955 60.5001 58.1955 59.4092V43.7819H61.5501V58.8637C61.5501 59.3728 61.641 59.7819 61.8228 60.091C62.0046 60.3819 62.241 60.5819 62.5319 60.691C62.841 60.8001 63.1773 60.8546 63.541 60.8546H70.2228V63.9092H62.6955Z" fill="white"/>
<defs>
<filter id="filter0_b_5_440" x="-8.18182" y="5.45466" width="92.7272" height="92.7272" filterUnits="userSpaceOnUse" color-interpolation-filters="sRGB">
<feFlood flood-opacity="0" result="BackgroundImageFix"/>
<feGaussianBlur in="BackgroundImageFix" stdDeviation="4.09091"/>
<feComposite in2="SourceAlpha" operator="in" result="effect1_backgroundBlur_5_440"/>
<feBlend mode="normal" in="SourceGraphic" in2="effect1_backgroundBlur_5_440" result="shape"/>
</filter>
</defs>
</svg>
